<svg width="99" height="70" viewBox="0 0 99 70" fill="none" xmlns="http://www.w3.org/2000/svg">
<path d="M35 17.5C38.2216 17.5 40.8333 14.8883 40.8333 11.6666C40.8333 8.44499 38.2216 5.83331 35 5.83331C31.7783 5.83331 29.1666 8.44499 29.1666 11.6666C29.1666 14.8883 31.7783 17.5 35 17.5Z" fill="#F57031"/>
<path d="M43.5984 22.4117C43.4062 21.8304 43.0354 21.3246 42.5389 20.9664C42.0425 20.6082 41.4456 20.4158 40.8334 20.4167H29.1667C28.5546 20.4163 27.9579 20.6088 27.4615 20.967C26.9651 21.3251 26.5943 21.8307 26.4017 22.4117L20.5684 39.9117L25.7454 41.6413L23.3334 52.5H29.1667V64.1667H40.8334V52.5H46.6667L44.2546 41.6384L49.4317 39.9088L43.5984 22.4117Z" fill="#F57031"/>
<path d="M64 5.83331C65.5471 5.83331 67.0308 6.44789 68.1247 7.54186C69.2187 8.63582 69.8333 10.1195 69.8333 11.6666C69.8333 13.2137 69.2187 14.6975 68.1247 15.7914C67.0308 16.8854 65.5471 17.5 64 17.5C62.4529 17.5 60.9691 16.8854 59.8752 15.7914C58.7812 14.6975 58.1666 13.2137 58.1666 11.6666C58.1666 10.1195 58.7812 8.63582 59.8752 7.54186C60.9691 6.44789 62.4529 5.83331 64 5.83331ZM59.625 20.4166H68.375C69.9221 20.4166 71.4058 21.0312 72.4997 22.1252C73.5937 23.2192 74.2083 24.7029 74.2083 26.25V42.2916H69.8333V64.1666H58.1666V42.2916H53.7916V26.25C53.7916 24.7029 54.4062 23.2192 55.5002 22.1252C56.5941 21.0312 58.0779 20.4166 59.625 20.4166Z" fill="#07116B"/>
</svg>
